<?xml version="1.0" encoding="UTF-8"?>
<svg id="Layer_2" data-name="Layer 2" xmlns="http://www.w3.org/2000/svg" viewBox="0 0 1419.88 152">
  <defs>
    <style>
      .cls-1 {
        fill-rule: evenodd;
      }

      .cls-1, .cls-2 {
        fill: #ff6300;
      }

      .cls-3 {
        fill: #232a31;
      }

      .cls-4 {
        fill: #1d1d1d;
      }
    </style>
  </defs>
  <g id="Layer_1-2" data-name="Layer 1">
    <path class="cls-1" d="M113.36,91.88c-.14,0-.32-.06-.41-.2-.09-.12-.12-.29-.09-.43,2.76-8.87,3.69-18.21,2.73-27.43,0-.17-.12-.32-.29-.38-9.21-4.29-15.11-13.48-15.17-23.6,0-3.42.64-6.78,1.92-9.94.06-.17.06-.35-.06-.49-1.57-2.03-3.22-4-5-5.86-10.08-10.58-23.27-17.71-37.65-20.41-.23-.03-.41-.23-.41-.49,0-.23.15-.43.38-.49,20.6-5.31,42.5-.67,59.18,12.52.09.06.2.12.29.12h.15c2.35-.72,4.82-1.07,7.29-1.07,10.72-.03,20.4,6.49,24.35,16.44,3.95,9.94,1.42,21.31-6.39,28.64-.12.12-.17.26-.15.41.41,3.02.61,6.06.64,9.13,0,.29,0,.55-.03.84v.52s-.09.2-.15.29c-8.08,10.03-18.83,17.6-31,21.86h-.17l.03.03ZM27.69,116.2s-.26-.06-.35-.15c-14.79-14.99-21.79-36.01-18.91-56.85,0-.14-.03-.32-.15-.41C-.58,50.54-2.56,37.29,3.46,26.79c6.01-10.49,18.45-15.48,30.07-12.06.15.06.32,0,.44-.09,2.93-2.32,6.04-4.38,9.3-6.2.06-.03.15-.06.23-.06,12.78,1.97,24.78,7.48,34.6,15.92.15.12.2.32.15.49-.03.17-.17.32-.38.35-9.21,2.06-17.9,6.03-25.51,11.6-.15.09-.2.26-.2.43.09.87.15,1.77.15,2.64-.09,12.96-9.65,23.92-22.52,25.77-.17,0-.32.15-.38.29-.93,2.23-1.74,4.58-2.41,6.9-4.13,14-3.72,28.96,1.16,42.73.06.15.03.32-.06.43-.09.12-.26.2-.41.2v.06ZM76.5,152c-12.09,0-22.63-8.26-25.48-20-.03-.15-.15-.29-.29-.35-3.46-1.39-6.77-3.04-9.94-4.96-.09-.06-.17-.14-.2-.23-4.65-12-5.84-25.05-3.43-37.69.03-.17.17-.32.35-.38h.09c.15,0,.29.03.41.15,6.39,6.9,14.15,12.41,22.78,16.21.06,0,.12.03.2.03.12,0,.2-.03.29-.09,11.39-8.15,27.19-5.89,35.82,5.13.09.12.23.2.38.17h.06c2.38-.32,4.82-.78,7.2-1.36,14.24-3.45,27.05-11.31,36.58-22.41.09-.12.23-.17.38-.17.09,0,.18,0,.23.06.2.12.29.35.23.55-5.75,20.24-20.45,36.76-39.92,44.82-.14.06-.26.17-.29.35-2.76,11.77-13.28,20.12-25.39,20.15l-.06.03Z"/>
    <path class="cls-3" d="M243.83,132h-29.31v-51.52c0-5.59-2.72-8.61-8.91-8.61-2.27,0-4.53.45-6.2,1.21v58.92h-29.31V13.4h29.31v38.53c4.23-1.66,9.37-2.72,14.5-2.72,19.64,0,29.92,9.97,29.92,28.1v54.69ZM331.16,127.93c-7.86,3.63-21.91,6.04-35.51,6.04-25.08,0-37.62-9.07-37.62-31.88v-51.52h29.31v52.28c0,5.14,2.87,7.4,8.31,7.4,2.72,0,4.99-.3,6.2-.75v-58.92h29.31v77.36ZM419.27,127.93c-6.95,3.47-19.34,6.04-33.69,6.04-27.8,0-42.76-14.81-42.76-42.76,0-25.23,12.99-41.4,38.53-41.4,2.87,0,6.5.6,8.61,1.21V13.4h29.31v114.52ZM389.95,110.7v-38.38c-.91-.45-3.17-.91-5.29-.91-8.16,0-12.54,7.71-12.54,19.49,0,13.9,4.53,20.4,12.84,20.4,1.96,0,3.93-.15,4.99-.6ZM463.52,132h-29.31V13.4h29.31v118.6Z"/>
    <path class="cls-2" d="M531.52,110.25c0,14.05-11.18,23.42-30.37,23.42-8.46,0-16.92-1.96-24.17-5.74l4.53-9.67c5.44,3.02,12.99,5.14,19.49,5.14,10.42,0,17.37-5.14,17.37-13.15,0-8.61-6.95-11.93-16.47-15.41-11.48-4.23-22.81-9.37-22.81-24.02,0-12.69,9.82-21.91,27.05-21.91,8.31,0,16.47,2.12,22.66,5.74l-4.38,8.91c-4.53-2.87-10.58-4.83-17.07-4.83-9.82,0-15.41,5.29-15.41,12.09,0,8.91,7.4,11.94,16.02,15.11,12.09,4.53,23.57,9.07,23.57,24.32ZM578.85,131.55c-1.66.76-4.83,1.36-8.31,1.36-13.29,0-21.45-7.25-21.45-22.06v-50.77h-11.79v-9.52h11.79v-19.64l12.24-4.08v23.72h17.53v9.52h-17.53v50.16c0,8.31,5.59,11.48,12.24,11.48,1.96,0,4.08-.3,5.29-.76v10.58ZM648.13,127.93c-5.74,3.17-17.38,5.74-28.1,5.74-22.36,0-33.54-9.52-33.54-24.93,0-23.27,25.08-26.74,49.71-28.1v-6.19c0-12.09-8.01-15.86-19.34-15.86-7.55,0-16.92,2.42-22.21,4.99l-3.32-8.91c6.2-2.87,16.47-5.74,26.59-5.74,18.28,0,30.22,7.25,30.22,26.59v52.43ZM636.19,121.58v-32.18c-18.13,1.06-37.77,2.12-37.77,19.04,0,9.52,7.1,15.71,21.3,15.71,6.19,0,13.6-1.21,16.47-2.57ZM698.67,131.55c-1.66.76-4.84,1.36-8.31,1.36-13.3,0-21.45-7.25-21.45-22.06v-50.77h-11.78v-9.52h11.78v-19.64l12.24-4.08v23.72h17.53v9.52h-17.53v50.16c0,8.31,5.59,11.48,12.24,11.48,1.96,0,4.08-.3,5.29-.76v10.58ZM759.35,110.25c0,14.05-11.18,23.42-30.37,23.42-8.46,0-16.92-1.96-24.17-5.74l4.53-9.67c5.44,3.02,12.99,5.14,19.49,5.14,10.42,0,17.38-5.14,17.38-13.15,0-8.61-6.95-11.93-16.47-15.41-11.48-4.23-22.82-9.37-22.82-24.02,0-12.69,9.82-21.91,27.04-21.91,8.31,0,16.47,2.12,22.66,5.74l-4.38,8.91c-4.53-2.87-10.58-4.83-17.07-4.83-9.82,0-15.41,5.29-15.41,12.09,0,8.91,7.4,11.94,16.01,15.11,12.09,4.53,23.57,9.07,23.57,24.32ZM836.88,89.7c0,30.67-16.32,43.97-39.13,43.97-9.97,0-19.64-2.57-25.84-5.74V13.4h12.69v39.58c4.23-1.96,10.73-3.63,16.92-3.63,21,0,35.35,15.26,35.35,40.34ZM824.19,90.46c0-19.49-9.67-31.12-24.33-31.12-5.44,0-11.48,1.36-15.26,3.32v58.17c2.72,1.36,8.16,2.57,13.75,2.57,14.5,0,25.84-9.52,25.84-32.94ZM915.85,91.21c0,24.17-12.09,42.46-34.6,42.46s-34.6-18.28-34.6-42.46,12.09-42.3,34.6-42.3,34.6,18.13,34.6,42.3ZM903.31,91.06c0-18.73-7.25-31.88-22.06-31.88s-22.06,13.14-22.06,31.88,7.25,32.18,22.06,32.18,22.06-13.45,22.06-32.18ZM1037.24,132h-12.54v-56.05c0-10.58-7.4-16.77-17.67-16.77-7.56,0-13.75,2.72-17.68,6.95v65.87h-12.54v-58.02c0-9.22-7.71-14.81-19.04-14.81-6.5,0-12.09,1.21-16.17,2.87v69.95h-12.69V54.65c7.86-3.32,17.53-5.74,28.1-5.74,12.69,0,21.45,4.23,25.83,9.37,4.99-4.68,14.66-9.37,26.59-9.37,16.77,0,27.8,10.12,27.8,25.99v57.11ZM1118.27,89.7c0,30.67-16.32,43.97-39.13,43.97-9.97,0-19.64-2.57-25.84-5.74V13.4h12.69v39.58c4.23-1.96,10.73-3.63,16.92-3.63,21.01,0,35.36,15.26,35.36,40.34ZM1105.58,90.46c0-19.49-9.67-31.12-24.33-31.12-5.44,0-11.48,1.36-15.26,3.32v58.17c2.72,1.36,8.16,2.57,13.75,2.57,14.51,0,25.84-9.52,25.84-32.94Z"/>
    <g>
      <path class="cls-4" d="M1327.29,73.22h35.89c10.03,0,18.02-8.31,18.02-18.49V20.25c0-9.87-8.15-17.24-18.02-18.81-6.11-1.1-12.54-1.57-18.81-1.41-6.11,0-12.07.63-17.24,1.41-15.2,2.66-18.02,8.46-18.02,18.81v13.79h35.89v4.55h-49.37c-10.5,0-19.59,6.27-22.41,18.34-3.29,13.79-3.45,22.41,0,36.83,2.51,10.81,8.62,18.34,19.12,18.34h12.38v-16.46c.16-11.91,10.34-22.41,22.57-22.41ZM1324.94,24.79c-3.76,0-6.74-3.13-6.74-6.9s2.98-6.9,6.74-6.9,6.74,3.13,6.74,6.9-2.98,6.9-6.74,6.9Z"/>
      <path class="cls-4" d="M1417.1,57.08c-2.51-10.5-7.52-18.34-18.02-18.34h-13.48v15.99c0,12.54-10.5,23.04-22.41,23.04h-35.89c-9.87,0-18.02,8.46-18.02,18.49v34.48c0,9.87,8.46,15.67,18.02,18.49,11.44,3.45,22.26,3.92,35.89,0,9.09-2.66,18.02-7.99,18.02-18.49v-13.79h-35.89v-4.55h53.92c10.5,0,14.42-7.37,18.02-18.34,3.6-11.6,3.45-22.41-.16-36.99ZM1365.38,126.04c3.76,0,6.74,3.13,6.74,6.9s-2.98,6.9-6.74,6.9-6.74-3.13-6.74-6.9,3.13-6.9,6.74-6.9Z"/>
    </g>
  </g>
</svg>