<?xml version="1.0" encoding="UTF-8"?>
<svg id="Layer_2" data-name="Layer 2" xmlns="http://www.w3.org/2000/svg" viewBox="0 0 433 500">
  <defs>
    <style>
      .cls-1 {
        fill: #232a32;
      }

      .cls-2 {
        fill: #fff;
      }
    </style>
  </defs>
  <g id="Layer_2-2" data-name="Layer 2">
    <polygon class="cls-1" points="433 375 433 125 216.5 0 0 125 0 375 216.5 500 433 375"/>
    <g>
      <path class="cls-2" d="M304.1,360.86c1.38-1.3,1.83-3.3,1.12-5.07-.7-1.77-2.41-2.92-4.29-2.9-.44,0-.88.07-1.28.19h-.03s-.04,0-.05-.01c-2.94-2.33-6.8-3.15-10.43-2.22-.04,0-.07.04-.07.08s.03.08.07.08c2.53.48,4.85,1.74,6.63,3.61.32.33.6.67.88,1.04.01.03.03.05,0,.08-.23.56-.34,1.15-.34,1.75,0,1.79,1.05,3.42,2.67,4.18.03,0,.04.04.05.07.16,1.63,0,3.29-.48,4.85v.08s.04.04.07.03h.03c2.15-.75,4.03-2.1,5.46-3.86,0-.01.01-.03.01-.06v-.25c0-.53-.04-1.08-.11-1.62,0-.03,0-.05.03-.07h.08Z"/>
      <path class="cls-2" d="M303.65,365.68s-.05,0-.07.03c-1.68,1.97-3.94,3.36-6.44,3.96-.42.1-.85.18-1.27.23,0,0-.06,0-.07-.03-1.52-1.94-4.31-2.36-6.32-.9-.01,0-.03.01-.05.01h-.04c-1.52-.67-2.89-1.64-4.01-2.86-.01-.01-.04-.03-.07-.03h-.01s-.05.04-.05.07c-.42,2.23-.22,4.55.6,6.67,0,.01.01.03.04.04.56.34,1.15.63,1.75.88.03,0,.04.03.05.05.51,2.08,2.35,3.53,4.48,3.53s3.99-1.48,4.47-3.56c0-.03.03-.05.05-.05,3.43-1.42,6.02-4.34,7.03-7.93,0-.04,0-.08-.04-.1h-.04Z"/>
      <path class="cls-2" d="M287.91,357.51c0-.15,0-.32-.03-.47,0-.03,0-.06.04-.08,1.34-.99,2.87-1.68,4.5-2.05.03,0,.05-.03.07-.07,0-.03,0-.07-.03-.08-1.72-1.49-3.84-2.47-6.1-2.82h-.04c-.57.32-1.12.68-1.64,1.1-.03.01-.05.03-.08.01-2.05-.6-4.24.27-5.3,2.14-1.05,1.85-.71,4.19.85,5.66.01.01.03.04.03.07-.51,3.68.72,7.4,3.34,10.05.01.01.04.03.05.03,0,0,.05,0,.07-.04.01-.03.03-.06,0-.08-.86-2.44-.93-5.08-.2-7.56.12-.41.26-.82.42-1.22,0-.03.04-.05.07-.05,2.27-.33,3.95-2.26,3.97-4.56l.03.04Z"/>
      <path class="cls-2" d="M135.64,360.96c0,1.77-1.22,2.81-3.28,2.81h-1.87v3.24h-1.86v-8.92h3.73c2.06,0,3.28,1.04,3.28,2.86ZM133.75,360.96c0-.9-.52-1.37-1.67-1.37h-1.59v2.74h1.59c1.16,0,1.67-.48,1.67-1.38h0Z"/>
      <path class="cls-2" d="M146.27,362.55c0,2.86-1.63,4.6-4.28,4.6s-4.29-1.73-4.29-4.6,1.64-4.6,4.29-4.6,4.28,1.73,4.28,4.6ZM139.63,362.55c0,1.99.86,3.07,2.36,3.07s2.35-1.08,2.35-3.07-.86-3.07-2.35-3.07-2.36,1.08-2.36,3.07Z"/>
      <path class="cls-2" d="M152.62,367.01h-2.15l-2.58-8.92h2.01l1.72,7.45,1.78-7.45h1.78l1.8,7.45,1.72-7.45h1.91l-2.58,8.92h-2.09l-1.24-4.86-.42-2.11h-.03l-.42,2.11-1.23,4.86h.03Z"/>
      <path class="cls-2" d="M170.26,365.51v1.51h-6.86v-8.92h6.67v1.51h-4.81v2.22h3.79v1.44h-3.79v2.27h5v-.03Z"/>
      <path class="cls-2" d="M177.04,363.59h-1.67v3.42h-1.83v-8.92h3.92c2.02,0,3.24,1,3.24,2.75,0,1.29-.66,2.18-1.82,2.55l2.35,3.61h-2.09l-2.09-3.42h-.01ZM175.37,362.17h1.85c1.08,0,1.57-.41,1.57-1.3s-.51-1.3-1.57-1.3h-1.85v2.59h0Z"/>
      <path class="cls-2" d="M190.86,365.51v1.51h-6.86v-8.92h6.67v1.51h-4.81v2.22h3.79v1.44h-3.79v2.27h5v-.03Z"/>
      <path class="cls-2" d="M201.75,362.55c0,2.85-1.59,4.46-4.39,4.46h-3.45v-8.92h3.45c2.79,0,4.39,1.6,4.39,4.46h0ZM199.82,362.55c0-1.92-.85-2.97-2.56-2.97h-1.49v5.94h1.49c1.69,0,2.56-1.05,2.56-2.97Z"/>
      <path class="cls-2" d="M208.3,358.1h3.9c2.16,0,3.16.89,3.16,2.44,0,.96-.57,1.78-1.7,1.97,1.24.19,1.93,1.03,1.93,2.07,0,1.53-1.14,2.45-3.25,2.45h-4.03v-8.92h0ZM211.93,361.84c1,0,1.49-.38,1.49-1.15s-.49-1.15-1.49-1.15h-1.83v2.3h1.83ZM212.17,365.61c1,0,1.49-.43,1.49-1.18s-.49-1.16-1.49-1.16h-2.07v2.34h2.07Z"/>
      <path class="cls-2" d="M222.28,363.67v3.34h-1.86v-3.34l-3.16-5.59h1.98l1.44,2.66.67,1.41.68-1.41,1.44-2.66h1.97l-3.16,5.59Z"/>
      <path class="cls-2" d="M239.2,358.1v8.92h-1.86v-3.75h-3.92v3.75h-1.86v-8.92h1.86v3.66h3.92v-3.66h1.86Z"/>
      <path class="cls-2" d="M249.88,363.5c0,2.44-1.33,3.64-3.8,3.64s-3.8-1.22-3.8-3.64v-5.41h1.86v5.33c0,1.51.63,2.2,1.94,2.2s1.93-.7,1.93-2.2v-5.33h1.87v5.41Z"/>
      <path class="cls-2" d="M260.64,362.55c0,2.85-1.59,4.46-4.39,4.46h-3.45v-8.92h3.45c2.79,0,4.39,1.6,4.39,4.46h0ZM258.71,362.55c0-1.92-.85-2.97-2.56-2.97h-1.49v5.94h1.49c1.69,0,2.56-1.05,2.56-2.97Z"/>
      <path class="cls-2" d="M269.05,365.51v1.51h-5.78v-8.92h1.86v7.42h3.92Z"/>
      <path class="cls-2" d="M277.74,181.43c27.76,27.82,27.33,73.25-.95,101.53-28.28,28.28-73.72,28.71-101.53.95l-13.03,13.03s-.05-.05-.06-.05h.02c-34.82-34.82-34.31-91.98,1.12-127.43,35.44-35.44,92.61-35.94,127.43-1.12,0,0,.05.05.06.06l14.14-14.14s-.05-.05-.06-.06c-42.55-42.58-112.17-41.96-155.49,1.36-43.31,43.31-43.92,112.93-1.38,155.49,0,0,.05.05.06.05l14.14-14.14c16.88,16.86,39.43,25.98,63.41,25.78,24.02-.21,46.76-9.77,63.95-26.96,35.44-35.44,35.94-92.55,1.19-127.37l-13.03,13.03Z"/>
      <path class="cls-2" d="M225.99,284.61c13.78-.13,26.95-5.59,36.91-15.55,20.43-20.43,20.74-53.38.7-73.49l-13.03,13.03c13,13.06,12.78,34.36-.46,47.63h-.02c-13.27,13.28-34.55,13.51-47.61.49l14.12-14.12s-.05-.05-.06-.05h.02c-5.37-5.4-5.29-14.19.17-19.67,5.46-5.48,14.27-5.54,19.64-.17,0,0,.02.03.03.05l-19.81,19.81c5.37,5.31,14.14,5.23,19.57-.24,5.43-5.43,5.54-14.19.24-19.57l14.12-14.12s-.05-.05-.05-.06c-13.06-13.06-34.39-12.87-47.69.43-13.28,13.28-13.48,34.63-.43,47.69,0,0,.03.02.05.03l-13.03,13.03c9.79,9.74,22.82,14.96,36.58,14.84l.05.02Z"/>
      <path class="cls-2" d="M176.1,182.3c-28.29,28.29-28.71,73.79-.92,101.57,0,0,.05.05.06.05l14.14-14.14s-.05-.05-.06-.05h.02c-20.08-20.11-19.81-53.11.67-73.55,20.44-20.44,53.44-20.74,73.53-.67,0,0,.05.05.05.06l14.14-14.14s-.05-.05-.05-.06c-27.79-27.79-73.28-27.39-101.57.92Z"/>
    </g>
  </g>
</svg>