<?xml version="1.0" encoding="UTF-8"?>
<svg id="Layer_2" xmlns="http://www.w3.org/2000/svg" version="1.1" viewBox="0 0 1419.9 152">
  <!-- Generator: Adobe Illustrator 29.0.0, SVG Export Plug-In . SVG Version: 2.1.0 Build 186)  -->
  <defs>
    <style>
      .st0 {
        fill-rule: evenodd;
      }

      .st0, .st1 {
        fill: #ff6300;
      }

      .st2 {
        fill: #fff;
      }
    </style>
  </defs>
  <g id="Layer_1-2">
    <path class="st0" d="M113.4,91.9c-.1,0-.3,0-.4-.2,0-.1-.1-.3,0-.4,2.8-8.9,3.7-18.2,2.7-27.4,0-.2-.1-.3-.3-.4-9.2-4.3-15.1-13.5-15.2-23.6,0-3.4.6-6.8,1.9-9.9,0-.2,0-.4,0-.5-1.6-2-3.2-4-5-5.9-10.1-10.6-23.3-17.7-37.7-20.4-.2,0-.4-.2-.4-.5s.2-.4.4-.5c20.6-5.3,42.5-.7,59.2,12.5,0,0,.2.1.3.1h.2c2.3-.7,4.8-1.1,7.3-1.1,10.7,0,20.4,6.5,24.3,16.4,3.9,9.9,1.4,21.3-6.4,28.6-.1.1-.2.3-.1.4.4,3,.6,6.1.6,9.1,0,.3,0,.6,0,.8v.5s0,.2-.1.3c-8.1,10-18.8,17.6-31,21.9h-.2,0s0,0,0,0ZM27.7,116.2s-.3,0-.4-.2c-14.8-15-21.8-36-18.9-56.8,0-.1,0-.3-.1-.4C-.6,50.5-2.6,37.3,3.5,26.8c6-10.5,18.4-15.5,30.1-12.1.2,0,.3,0,.4,0,2.9-2.3,6-4.4,9.3-6.2,0,0,.2,0,.2,0,12.8,2,24.8,7.5,34.6,15.9.2.1.2.3.2.5,0,.2-.2.3-.4.4-9.2,2.1-17.9,6-25.5,11.6-.2,0-.2.3-.2.4,0,.9.2,1.8.2,2.6,0,13-9.6,23.9-22.5,25.8-.2,0-.3.2-.4.3-.9,2.2-1.7,4.6-2.4,6.9-4.1,14-3.7,29,1.2,42.7,0,.2,0,.3,0,.4,0,.1-.3.2-.4.2h0c0,0,0,0,0,0ZM76.5,152c-12.1,0-22.6-8.3-25.5-20,0-.1-.2-.3-.3-.4-3.5-1.4-6.8-3-9.9-5,0,0-.2-.1-.2-.2-4.7-12-5.8-25.1-3.4-37.7,0-.2.2-.3.3-.4h0c.2,0,.3,0,.4.2,6.4,6.9,14.1,12.4,22.8,16.2,0,0,.1,0,.2,0,.1,0,.2,0,.3,0,11.4-8.2,27.2-5.9,35.8,5.1,0,.1.2.2.4.2h0c2.4-.3,4.8-.8,7.2-1.4,14.2-3.4,27-11.3,36.6-22.4,0-.1.2-.2.4-.2s.2,0,.2,0c.2.1.3.3.2.6-5.8,20.2-20.4,36.8-39.9,44.8-.1,0-.3.2-.3.4-2.8,11.8-13.3,20.1-25.4,20.1h0s0,0,0,0Z"/>
    <path class="st2" d="M243.8,132h-29.3v-51.5c0-5.6-2.7-8.6-8.9-8.6s-4.5.4-6.2,1.2v58.9h-29.3V13.4h29.3v38.5c4.2-1.7,9.4-2.7,14.5-2.7,19.6,0,29.9,10,29.9,28.1v54.7ZM331.2,127.9c-7.9,3.6-21.9,6-35.5,6-25.1,0-37.6-9.1-37.6-31.9v-51.5h29.3v52.3c0,5.1,2.9,7.4,8.3,7.4s5-.3,6.2-.8v-58.9h29.3v77.4h0ZM419.3,127.9c-7,3.5-19.3,6-33.7,6-27.8,0-42.8-14.8-42.8-42.8s13-41.4,38.5-41.4,6.5.6,8.6,1.2V13.4h29.3v114.5h0ZM390,110.7v-38.4c-.9-.4-3.2-.9-5.3-.9-8.2,0-12.5,7.7-12.5,19.5s4.5,20.4,12.8,20.4,3.9-.2,5-.6h0ZM463.5,132h-29.3V13.4h29.3v118.6Z"/>
    <path class="st1" d="M531.5,110.2c0,14.1-11.2,23.4-30.4,23.4s-16.9-2-24.2-5.7l4.5-9.7c5.4,3,13,5.1,19.5,5.1,10.4,0,17.4-5.1,17.4-13.2s-7-11.9-16.5-15.4c-11.5-4.2-22.8-9.4-22.8-24s9.8-21.9,27-21.9,16.5,2.1,22.7,5.7l-4.4,8.9c-4.5-2.9-10.6-4.8-17.1-4.8-9.8,0-15.4,5.3-15.4,12.1s7.4,11.9,16,15.1c12.1,4.5,23.6,9.1,23.6,24.3h0ZM578.8,131.6c-1.7.8-4.8,1.4-8.3,1.4-13.3,0-21.5-7.2-21.5-22.1v-50.8h-11.8v-9.5h11.8v-19.6l12.2-4.1v23.7h17.5v9.5h-17.5v50.2c0,8.3,5.6,11.5,12.2,11.5s4.1-.3,5.3-.8v10.6h0ZM648.1,127.9c-5.7,3.2-17.4,5.7-28.1,5.7-22.4,0-33.5-9.5-33.5-24.9,0-23.3,25.1-26.7,49.7-28.1v-6.2c0-12.1-8-15.9-19.3-15.9s-16.9,2.4-22.2,5l-3.3-8.9c6.2-2.9,16.5-5.7,26.6-5.7,18.3,0,30.2,7.2,30.2,26.6v52.4h0ZM636.2,121.6v-32.2c-18.1,1.1-37.8,2.1-37.8,19s7.1,15.7,21.3,15.7,13.6-1.2,16.5-2.6h0ZM698.7,131.6c-1.7.8-4.8,1.4-8.3,1.4-13.3,0-21.5-7.2-21.5-22.1v-50.8h-11.8v-9.5h11.8v-19.6l12.2-4.1v23.7h17.5v9.5h-17.5v50.2c0,8.3,5.6,11.5,12.2,11.5s4.1-.3,5.3-.8v10.6h0ZM759.3,110.2c0,14.1-11.2,23.4-30.4,23.4s-16.9-2-24.2-5.7l4.5-9.7c5.4,3,13,5.1,19.5,5.1,10.4,0,17.4-5.1,17.4-13.2s-7-11.9-16.5-15.4c-11.5-4.2-22.8-9.4-22.8-24s9.8-21.9,27-21.9,16.5,2.1,22.7,5.7l-4.4,8.9c-4.5-2.9-10.6-4.8-17.1-4.8-9.8,0-15.4,5.3-15.4,12.1s7.4,11.9,16,15.1c12.1,4.5,23.6,9.1,23.6,24.3h0ZM836.9,89.7c0,30.7-16.3,44-39.1,44s-19.6-2.6-25.8-5.7V13.4h12.7v39.6c4.2-2,10.7-3.6,16.9-3.6,21,0,35.3,15.3,35.3,40.3h0ZM824.2,90.5c0-19.5-9.7-31.1-24.3-31.1s-11.5,1.4-15.3,3.3v58.2c2.7,1.4,8.2,2.6,13.8,2.6,14.5,0,25.8-9.5,25.8-32.9ZM915.8,91.2c0,24.2-12.1,42.5-34.6,42.5s-34.6-18.3-34.6-42.5,12.1-42.3,34.6-42.3,34.6,18.1,34.6,42.3ZM903.3,91.1c0-18.7-7.2-31.9-22.1-31.9s-22.1,13.1-22.1,31.9,7.2,32.2,22.1,32.2,22.1-13.4,22.1-32.2ZM1037.2,132h-12.5v-56.1c0-10.6-7.4-16.8-17.7-16.8s-13.8,2.7-17.7,7v65.9h-12.5v-58c0-9.2-7.7-14.8-19-14.8s-12.1,1.2-16.2,2.9v69.9h-12.7V54.7c7.9-3.3,17.5-5.7,28.1-5.7s21.5,4.2,25.8,9.4c5-4.7,14.7-9.4,26.6-9.4s27.8,10.1,27.8,26v57.1h0ZM1118.3,89.7c0,30.7-16.3,44-39.1,44s-19.6-2.6-25.8-5.7V13.4h12.7v39.6c4.2-2,10.7-3.6,16.9-3.6,21,0,35.4,15.3,35.4,40.3h0ZM1105.6,90.5c0-19.5-9.7-31.1-24.3-31.1s-11.5,1.4-15.3,3.3v58.2c2.7,1.4,8.2,2.6,13.8,2.6,14.5,0,25.8-9.5,25.8-32.9Z"/>
    <g>
      <path class="st2" d="M1327.3,73.2h35.9c10,0,18-8.3,18-18.5V20.2c0-9.9-8.2-17.2-18-18.8-6.1-1.1-12.5-1.6-18.8-1.4-6.1,0-12.1.6-17.2,1.4-15.2,2.7-18,8.5-18,18.8v13.8h35.9v4.5h-49.4c-10.5,0-19.6,6.3-22.4,18.3-3.3,13.8-3.4,22.4,0,36.8,2.5,10.8,8.6,18.3,19.1,18.3h12.4v-16.5c.2-11.9,10.3-22.4,22.6-22.4h0ZM1324.9,24.8c-3.8,0-6.7-3.1-6.7-6.9s3-6.9,6.7-6.9,6.7,3.1,6.7,6.9-3,6.9-6.7,6.9Z"/>
      <path class="st2" d="M1417.1,57.1c-2.5-10.5-7.5-18.3-18-18.3h-13.5v16c0,12.5-10.5,23-22.4,23h-35.9c-9.9,0-18,8.5-18,18.5v34.5c0,9.9,8.5,15.7,18,18.5,11.4,3.4,22.3,3.9,35.9,0,9.1-2.7,18-8,18-18.5v-13.8h-35.9v-4.6h53.9c10.5,0,14.4-7.4,18-18.3,3.6-11.6,3.4-22.4-.2-37h0ZM1365.4,126c3.8,0,6.7,3.1,6.7,6.9s-3,6.9-6.7,6.9-6.7-3.1-6.7-6.9,3.1-6.9,6.7-6.9Z"/>
    </g>
  </g>
</svg>