<?xml version="1.0" encoding="UTF-8"?>
<svg id="Layer_2" xmlns="http://www.w3.org/2000/svg" version="1.1" viewBox="0 0 433 500">
  <!-- Generator: Adobe Illustrator 29.0.0, SVG Export Plug-In . SVG Version: 2.1.0 Build 186)  -->
  <defs>
    <style>
      .st0 {
        fill: #ff6300;
      }

      .st1 {
        fill: #fff;
      }
    </style>
  </defs>
  <g id="Layer_2-2">
    <polygon class="st0" points="433 375 433 125 216.5 0 0 125 0 375 216.5 500 433 375"/>
    <g>
      <path class="st1" d="M304.1,360.9c1.4-1.3,1.8-3.3,1.1-5.1-.7-1.8-2.4-2.9-4.3-2.9-.4,0-.9,0-1.3.2h0s0,0,0,0c-2.9-2.3-6.8-3.1-10.4-2.2,0,0,0,0,0,0s0,0,0,0c2.5.5,4.9,1.7,6.6,3.6.3.3.6.7.9,1,0,0,0,0,0,0-.2.6-.3,1.1-.3,1.8,0,1.8,1,3.4,2.7,4.2,0,0,0,0,0,0,.2,1.6,0,3.3-.5,4.9h0c0,0,0,.1,0,.1h0c2.1-.8,4-2.1,5.5-3.9,0,0,0,0,0,0v-.2c0-.5,0-1.1-.1-1.6,0,0,0,0,0,0h0,0Z"/>
      <path class="st1" d="M303.6,365.7s0,0,0,0c-1.7,2-3.9,3.4-6.4,4-.4.1-.9.2-1.3.2,0,0,0,0,0,0-1.5-1.9-4.3-2.4-6.3-.9,0,0,0,0,0,0h0c-1.5-.7-2.9-1.6-4-2.9,0,0,0,0,0,0h0s0,0,0,0c-.4,2.2-.2,4.5.6,6.7,0,0,0,0,0,0,.6.3,1.1.6,1.8.9,0,0,0,0,0,0,.5,2.1,2.4,3.5,4.5,3.5s4-1.5,4.5-3.6c0,0,0,0,0,0,3.4-1.4,6-4.3,7-7.9,0,0,0,0,0-.1h0,0Z"/>
      <path class="st1" d="M287.9,357.5c0-.1,0-.3,0-.5,0,0,0,0,0,0,1.3-1,2.9-1.7,4.5-2,0,0,0,0,0,0,0,0,0,0,0,0-1.7-1.5-3.8-2.5-6.1-2.8h0c-.6.3-1.1.7-1.6,1.1,0,0,0,0,0,0-2-.6-4.2.3-5.3,2.1-1,1.9-.7,4.2.9,5.7,0,0,0,0,0,0-.5,3.7.7,7.4,3.3,10,0,0,0,0,0,0,0,0,0,0,0,0,0,0,0,0,0,0-.9-2.4-.9-5.1-.2-7.6.1-.4.3-.8.4-1.2,0,0,0,0,0,0,2.3-.3,4-2.3,4-4.6h0s0,0,0,0Z"/>
      <path class="st1" d="M135.6,361c0,1.8-1.2,2.8-3.3,2.8h-1.9v3.2h-1.9v-8.9h3.7c2.1,0,3.3,1,3.3,2.9h0ZM133.8,361c0-.9-.5-1.4-1.7-1.4h-1.6v2.7h1.6c1.2,0,1.7-.5,1.7-1.4h0Z"/>
      <path class="st1" d="M146.3,362.5c0,2.9-1.6,4.6-4.3,4.6s-4.3-1.7-4.3-4.6,1.6-4.6,4.3-4.6,4.3,1.7,4.3,4.6ZM139.6,362.5c0,2,.9,3.1,2.4,3.1s2.4-1.1,2.4-3.1-.9-3.1-2.4-3.1-2.4,1.1-2.4,3.1Z"/>
      <path class="st1" d="M152.6,367h-2.1l-2.6-8.9h2l1.7,7.5,1.8-7.5h1.8l1.8,7.5,1.7-7.5h1.9l-2.6,8.9h-2.1l-1.2-4.9-.4-2.1h0l-.4,2.1-1.2,4.9h0,0Z"/>
      <path class="st1" d="M170.3,365.5v1.5h-6.9v-8.9h6.7v1.5h-4.8v2.2h3.8v1.4h-3.8v2.3h5Z"/>
      <path class="st1" d="M177,363.6h-1.7v3.4h-1.8v-8.9h3.9c2,0,3.2,1,3.2,2.8s-.7,2.2-1.8,2.5l2.4,3.6h-2.1l-2.1-3.4h0ZM175.4,362.2h1.9c1.1,0,1.6-.4,1.6-1.3s-.5-1.3-1.6-1.3h-1.9v2.6h0Z"/>
      <path class="st1" d="M190.9,365.5v1.5h-6.9v-8.9h6.7v1.5h-4.8v2.2h3.8v1.4h-3.8v2.3h5Z"/>
      <path class="st1" d="M201.8,362.5c0,2.9-1.6,4.5-4.4,4.5h-3.4v-8.9h3.4c2.8,0,4.4,1.6,4.4,4.5h0ZM199.8,362.5c0-1.9-.9-3-2.6-3h-1.5v5.9h1.5c1.7,0,2.6-1,2.6-3Z"/>
      <path class="st1" d="M208.3,358.1h3.9c2.2,0,3.2.9,3.2,2.4s-.6,1.8-1.7,2c1.2.2,1.9,1,1.9,2.1,0,1.5-1.1,2.5-3.2,2.5h-4v-8.9h0ZM211.9,361.8c1,0,1.5-.4,1.5-1.1s-.5-1.1-1.5-1.1h-1.8v2.3h1.8ZM212.2,365.6c1,0,1.5-.4,1.5-1.2s-.5-1.2-1.5-1.2h-2.1v2.3h2.1Z"/>
      <path class="st1" d="M222.3,363.7v3.3h-1.9v-3.3l-3.2-5.6h2l1.4,2.7.7,1.4.7-1.4,1.4-2.7h2l-3.2,5.6h0Z"/>
      <path class="st1" d="M239.2,358.1v8.9h-1.9v-3.8h-3.9v3.8h-1.9v-8.9h1.9v3.7h3.9v-3.7h1.9Z"/>
      <path class="st1" d="M249.9,363.5c0,2.4-1.3,3.6-3.8,3.6s-3.8-1.2-3.8-3.6v-5.4h1.9v5.3c0,1.5.6,2.2,1.9,2.2s1.9-.7,1.9-2.2v-5.3h1.9v5.4h0Z"/>
      <path class="st1" d="M260.6,362.5c0,2.9-1.6,4.5-4.4,4.5h-3.4v-8.9h3.4c2.8,0,4.4,1.6,4.4,4.5h0ZM258.7,362.5c0-1.9-.9-3-2.6-3h-1.5v5.9h1.5c1.7,0,2.6-1,2.6-3Z"/>
      <path class="st1" d="M269,365.5v1.5h-5.8v-8.9h1.9v7.4h3.9Z"/>
      <path class="st1" d="M277.7,181.4c27.8,27.8,27.3,73.2-1,101.5s-73.7,28.7-101.5,1l-13,13s0,0,0,0h0c-34.8-34.8-34.3-92,1.1-127.4,35.4-35.4,92.6-35.9,127.4-1.1,0,0,0,0,0,0l14.1-14.1s0,0,0,0c-42.5-42.6-112.2-42-155.5,1.4-43.3,43.3-43.9,112.9-1.4,155.5,0,0,0,0,0,0l14.1-14.1c16.9,16.9,39.4,26,63.4,25.8,24-.2,46.8-9.8,64-27,35.4-35.4,35.9-92.6,1.2-127.4l-13,13h0Z"/>
      <path class="st1" d="M226,284.6c13.8-.1,26.9-5.6,36.9-15.5,20.4-20.4,20.7-53.4.7-73.5l-13,13c13,13.1,12.8,34.4-.5,47.6h0c-13.3,13.3-34.6,13.5-47.6.5l14.1-14.1s0,0,0,0h0c-5.4-5.4-5.3-14.2.2-19.7,5.5-5.5,14.3-5.5,19.6-.2,0,0,0,0,0,0l-19.8,19.8c5.4,5.3,14.1,5.2,19.6-.2,5.4-5.4,5.5-14.2.2-19.6l14.1-14.1s0,0,0,0c-13.1-13.1-34.4-12.9-47.7.4-13.3,13.3-13.5,34.6-.4,47.7,0,0,0,0,0,0l-13,13c9.8,9.7,22.8,15,36.6,14.8h0s0,0,0,0Z"/>
      <path class="st1" d="M176.1,182.3c-28.3,28.3-28.7,73.8-.9,101.6,0,0,0,0,0,0l14.1-14.1s0,0,0,0h0c-20.1-20.1-19.8-53.1.7-73.6,20.4-20.4,53.4-20.7,73.5-.7,0,0,0,0,0,0l14.1-14.1s0,0,0,0c-27.8-27.8-73.3-27.4-101.6.9h0Z"/>
    </g>
  </g>
</svg>