<?xml version="1.0" encoding="utf-8"?>
<!-- Generator: Adobe Illustrator 27.4.0, SVG Export Plug-In . SVG Version: 6.00 Build 0)  -->
<svg version="1.1" id="Layer_1" xmlns="http://www.w3.org/2000/svg" xmlns:xlink="http://www.w3.org/1999/xlink" x="0px" y="0px"
	 viewBox="0 0 433 500" style="enable-background:new 0 0 433 500;" xml:space="preserve">
<style type="text/css">
	.st0{fill:#F3F3F3;}
	.st1{fill:#E11017;}
	.st2{fill-rule:evenodd;clip-rule:evenodd;fill:#1D1D1D;}
	.st3{fill:#E21017;}
	.st4{fill:#9A9A9A;}
</style>
<g>
	<polygon class="st0" points="433,375 433,125 216.5,0 0,125 0,375 216.5,500 	"/>
</g>
<g>
	<g>
		<path class="st3" d="M66.5,361.7h9c0,4,3.3,5.9,6.9,5.9c3.3,0,6.6-1.8,6.6-4.8c0-3.2-3.7-4.1-8.2-5.1c-6.2-1.5-13.7-3.3-13.7-12.2
			c0-7.9,5.8-12.3,14.9-12.3c9.5,0,14.8,5,14.8,13.2H88c0-3.5-2.9-5.2-6.2-5.2c-2.9,0-5.8,1.2-5.8,3.9c0,2.9,3.6,3.8,7.9,4.8
			c6.3,1.6,14.1,3.5,14.1,12.8c0,8.9-7.1,13.2-15.6,13.2C73,375.8,66.5,370.5,66.5,361.7z"/>
		<path class="st3" d="M120.9,367.4l0,7.6h-6.1c-7,0-11.3-4.3-11.3-11.3l0-13.5h-5.7v-1.9l12.5-13.3h1.6l0,8.3h8.8l0,6.9h-8.6
			l0,12.4c0,3.1,1.8,4.8,4.9,4.8H120.9z"/>
		<path class="st3" d="M156.4,343.2l0,31.7h-6.7l-0.7-2.8c-2.7,2.4-6.3,3.8-10.3,3.8c-9.5,0-16.6-7.2-16.6-16.8
			c0-9.6,7.1-16.7,16.6-16.7c4.1,0,7.7,1.4,10.4,3.9l0.9-3L156.4,343.2z M148,359.1c0-5-3.7-8.7-8.6-8.7s-8.6,3.7-8.6,8.7
			c0,5,3.7,8.7,8.6,8.7S148,364.1,148,359.1z"/>
		<path class="st3" d="M181.7,367.4l0,7.6h-6.1c-7,0-11.3-4.3-11.3-11.3l0-13.5h-5.7v-1.9l12.5-13.3h1.6l0,8.3h8.8v6.9h-8.6v12.4
			c0,3.1,1.8,4.8,4.9,4.8H181.7z"/>
		<path class="st3" d="M197.1,375.9c-8,0-13.3-4.5-13.3-11.3h8.4c0,2.8,2.2,4.2,5.3,4.2c2.4,0,4.5-1.1,4.5-3.2
			c0-2.2-2.8-2.8-6.1-3.4c-5.1-0.8-11.5-2.2-11.5-9.7c0-6,5.1-10.1,12.8-10.1s12.7,4.3,12.7,10.6h-8.1c0-2.5-1.8-3.8-4.8-3.8
			c-2.7,0-4.2,1.2-4.2,3c0,2.1,2.7,2.6,6,3.2c5.2,0.9,11.8,2,11.8,9.8C210.4,371.7,205.1,375.9,197.1,375.9L197.1,375.9z"/>
		<path class="st3" d="M238.1,353.3c3.6,1.9,5.7,5.5,5.7,9.8c0,6.6-5.8,11.9-12.9,11.9h-17.5l0-41.1l17,0c7.1,0,12.4,4.5,12.4,10.6
			C242.7,348,241,351.3,238.1,353.3L238.1,353.3z M230,366.8c2.9,0,4.9-1.9,4.9-4.6c0-2.6-1.9-4.6-4.9-4.6h-7.9l0,9.2H230L230,366.8
			z M234.1,345.9c0-2.6-1.8-4.4-4.6-4.4h-7.4l0,8.8h7.4C232.3,350.2,234.1,348.4,234.1,345.9L234.1,345.9z"/>
		<path class="st3" d="M245.5,359.2c0-9.6,7.3-16.8,17.1-16.8c9.8,0,17.1,7.1,17.1,16.8c0,9.6-7.4,16.8-17.1,16.8
			C252.8,375.9,245.5,368.7,245.5,359.2z M271.1,359.2c0-5.1-3.5-8.7-8.5-8.7c-4.9,0-8.5,3.6-8.5,8.7c0,5.1,3.5,8.7,8.5,8.7
			C267.6,367.8,271.1,364.3,271.1,359.2z"/>
		<path class="st3" d="M329.4,355.1l0,19.9h-8.6l0-18.5c0-4.2-1.7-6.5-4.8-6.5c-3.8,0-6.1,2.8-6.1,7.8V375h-8.4v-18.5
			c0-4.2-1.6-6.5-4.7-6.5c-3.9,0-6.2,2.8-6.2,7.8l0,17.2h-8.6l0-31.7h6l1.6,3.9c2.3-2.8,5.7-4.7,9.5-4.7c4,0,7.4,1.9,9.2,5.1
			c2.2-3.1,5.8-5.1,9.8-5.1C324.7,342.5,329.4,347.7,329.4,355.1z"/>
		<path class="st3" d="M366.5,359.1c0,9.6-7,16.8-16.7,16.8c-3.9,0-7.3-1.3-9.9-3.5l-1,2.6h-6.3v-33.9l7.5-8h1.1l-0.1,11.8
			c2.4-1.7,5.4-2.6,8.7-2.6C359.5,342.3,366.5,349.5,366.5,359.1z M357.8,359.1c0-5-3.7-8.7-8.6-8.7s-8.6,3.7-8.6,8.7
			c0,4.9,3.7,8.6,8.6,8.6S357.8,364,357.8,359.1z"/>
	</g>
</g>
<g>
	<path class="st4" d="M234.2,218.1c4.9-4.8,5-12.7,0.2-17.6l-17.8,17.8C221.5,223.1,229.4,223,234.2,218.1z"/>
	<path class="st4" d="M270.8,254.6c-25.4,25.4-66.3,25.8-91.3,0.9l-11.7,11.7c15.1,15.1,35.7,23.5,57.1,23.2
		c21.6-0.2,42.3-8.9,57.5-24.3c31.9-31.9,32.4-83.3,1.1-114.6l-11.7,11.7C296.6,188.3,296.2,229.2,270.8,254.6z"/>
	<path class="st4" d="M246.7,230.6c-11.7,11.9-30.9,12.1-42.8,0.4l-11.7,11.7c8.7,8.7,20.6,13.5,32.9,13.4
		c26.2-0.2,47.2-21.6,47-47.8c-0.1-12-4.8-23.6-13.1-32.3l-11.7,11.7C258.9,199.7,258.7,218.9,246.7,230.6z"/>
	<path class="st3" d="M167.6,267.2c-31.3-31.3-30.9-82.8,0.9-114.7s83.3-32.3,114.6-1l0,0l12.7-12.7l0,0
		C257.7,100.5,195,101,156.1,140s-39.4,101.7-1.1,139.9l0,0L167.6,267.2L167.6,267.2z"/>
	<path class="st3" d="M192.1,242.7c-18.1-18.7-17.6-48.6,1.2-66.7c18.3-17.7,47.3-17.7,65.6,0l0,0l12.7-12.7l0,0
		c-25-25-65.9-24.7-91.4,0.8s-25.8,66.4-0.8,91.4l0,0C179.4,255.4,192.1,242.7,192.1,242.7z"/>
	<path class="st3" d="M216.6,218.3c-4.8-5.1-4.6-13,0.5-17.8c4.9-4.6,12.5-4.6,17.3,0l0,0l12.7-12.7l0,0c-11.9-12-31.3-12-43.3,0
		s-12,31.3,0,43.3l0,0l0,0L216.6,218.3L216.6,218.3z"/>
</g>
</svg>
