<?xml version="1.0" encoding="utf-8"?>
<!-- Generator: Adobe Illustrator 27.4.0, SVG Export Plug-In . SVG Version: 6.00 Build 0)  -->
<svg version="1.1" id="Layer_1" xmlns="http://www.w3.org/2000/svg" xmlns:xlink="http://www.w3.org/1999/xlink" x="0px" y="0px"
	 viewBox="0 0 654 97" style="enable-background:new 0 0 654 97;" xml:space="preserve">
<style type="text/css">
	.st0{fill:#FFFFFF;}
</style>
<g>
	<g>
		<path class="st0" d="M0,61.3h14.9c0,6.6,5.5,9.8,11.5,9.8c5.6,0,11-2.9,11-8c0-5.3-6.2-6.8-13.6-8.5C13.5,52.1,0.9,49.1,0.9,34.4
			c0-13.1,9.7-20.5,24.8-20.5c15.7,0,24.6,8.4,24.6,22H35.8c0-5.9-4.9-8.6-10.4-8.6c-4.8,0-9.7,2-9.7,6.5c0,4.8,5.9,6.3,13.2,8
			c10.4,2.6,23.5,5.9,23.5,21.2c0,14.8-11.8,21.9-25.9,21.9C10.8,84.9,0,76,0,61.3z"/>
		<path class="st0" d="M90.5,70.8v12.7H80.4c-11.6,0-18.7-7.1-18.7-18.8V42.3h-9.5v-3.1L72.9,17h2.7v13.8h14.6v11.5H75.9v20.6
			c0,5.1,2.9,8,8.1,8L90.5,70.8z"/>
		<path class="st0" d="M149.5,30.7v52.7h-11.2l-1.2-4.7c-4.5,4-10.4,6.3-17.1,6.3c-15.9,0-27.7-12-27.7-27.9s11.8-27.8,27.7-27.8
			c6.8,0,12.8,2.4,17.3,6.5l1.5-5L149.5,30.7z M135.6,57.1c0-8.3-6.1-14.5-14.4-14.5s-14.4,6.2-14.4,14.5s6.1,14.5,14.4,14.5
			C129.5,71.5,135.6,65.3,135.6,57.1z"/>
		<path class="st0" d="M191.6,70.8v12.7h-10.1c-11.6,0-18.7-7.1-18.7-18.8V42.3h-9.5v-3.1L174,17h2.7v13.8h14.6v11.5H177v20.6
			c0,5.1,2.9,8,8.1,8L191.6,70.8L191.6,70.8z"/>
		<path class="st0" d="M217.1,85c-13.2,0-22.1-7.6-22.2-18.9h13.9c0.1,4.7,3.7,7,8.8,7c4,0,7.5-1.8,7.5-5.3c0-3.6-4.6-4.7-10.1-5.6
			c-8.4-1.4-19.1-3.7-19.1-16.1c0-10,8.5-16.9,21.2-16.9s21.1,7.1,21.1,17.6h-13.5c-0.1-4.2-3-6.3-8-6.3c-4.4,0-7.1,2-7.1,5.1
			c0,3.5,4.5,4.3,10,5.3c8.6,1.5,19.6,3.4,19.6,16.2C239.3,78,230.5,85,217.1,85L217.1,85z"/>
		<path class="st0" d="M285.3,47.4c6,3.2,9.5,9.1,9.5,16.3c0,11-9.6,19.7-21.5,19.7h-29.1V15h28.3c11.8,0,20.6,7.5,20.6,17.6
			C293,38.6,290.1,44.1,285.3,47.4L285.3,47.4z M271.9,69.9c4.9,0,8.1-3.2,8.1-7.7c0-4.4-3.2-7.6-8.1-7.6h-13.1v15.3H271.9
			L271.9,69.9z M278.7,35c0-4.3-3-7.3-7.6-7.3h-12.3v14.6h12.3C275.7,42.3,278.7,39.3,278.7,35L278.7,35z"/>
		<path class="st0" d="M297.6,57.1c0-16,12.2-27.9,28.5-27.9s28.5,11.9,28.5,27.9c0,15.9-12.3,27.9-28.5,27.9
			C309.8,85,297.6,73,297.6,57.1z M340.2,57.1c0-8.5-5.8-14.5-14.1-14.5c-8.2,0-14.1,5.9-14.1,14.5c0,8.5,5.8,14.5,14.1,14.5
			C334.3,71.6,340.2,65.7,340.2,57.1z"/>
		<path class="st0" d="M437.1,50.4v33.1h-14.3V52.8c0-7-2.8-10.8-7.9-10.8c-6.4,0-10.1,4.7-10.1,12.9v28.5h-13.9V52.7
			c0-7-2.7-10.8-7.8-10.8c-6.4,0-10.3,4.7-10.3,12.9v28.5h-14.3V30.6h10l2.7,6.5c3.7-4.7,9.5-7.8,15.7-7.8c6.7,0,12.3,3.1,15.3,8.4
			c3.6-5.1,9.6-8.4,16.3-8.4C429.4,29.5,437.1,38.1,437.1,50.4z"/>
		<path class="st0" d="M498.9,57c0,16-11.6,27.9-27.7,27.9c-6.4,0-12.1-2.2-16.5-5.9l-1.7,4.4h-10.5V27.1L455,13.8h1.9l-0.1,19.7
			c4.1-2.8,9-4.3,14.5-4.3C487.2,29.2,498.9,41,498.9,57z M484.3,57c0-8.3-6.1-14.5-14.4-14.5s-14.4,6.2-14.4,14.5
			c0,8.2,6.1,14.4,14.4,14.4C478.3,71.4,484.3,65.2,484.3,57z"/>
	</g>
</g>
<rect x="528.4" y="13.5" class="st0" width="1" height="70"/>
<g>
	<path class="st0" d="M594.9,46.8h22.9c6.4,0,11.5-5.3,11.5-11.8V13c0-6.3-5.2-11-11.5-12c-3.9-0.7-8-1-12-0.9
		c-3.9,0-7.7,0.4-11,0.9c-9.7,1.7-11.5,5.4-11.5,12v8.8h22.9v2.9h-22.9h-8.6c-6.7,0-12.5,4-14.3,11.7c-2.1,8.8-2.2,14.3,0,23.5
		c1.6,6.9,5.5,11.7,12.2,11.7h7.9V61.1C580.6,53.5,587.1,46.8,594.9,46.8z M593.4,15.9c-2.4,0-4.3-2-4.3-4.4s1.9-4.4,4.3-4.4
		c2.4,0,4.3,2,4.3,4.4S595.8,15.9,593.4,15.9z"/>
	<path class="st0" d="M652.2,36.5c-1.6-6.7-4.8-11.7-11.5-11.7h-8.6V35c0,8-6.7,14.7-14.3,14.7h-22.9c-6.3,0-11.5,5.4-11.5,11.8v22
		c0,6.3,5.4,10,11.5,11.8c7.3,2.2,14.2,2.5,22.9,0c5.8-1.7,11.5-5.1,11.5-11.8v-8.8h-22.9v-2.9h22.9h11.5c6.7,0,9.2-4.7,11.5-11.7
		C654.6,52.7,654.5,45.8,652.2,36.5z M619.2,80.5c2.4,0,4.3,2,4.3,4.4s-1.9,4.4-4.3,4.4c-2.4,0-4.3-2-4.3-4.4S616.9,80.5,619.2,80.5
		z"/>
</g>
</svg>
